<svg width="154" height="134" viewBox="0 0 154 134" fill="none" xmlns="http://www.w3.org/2000/svg">
<g clip-path="url(#clip0)">
<path d="M100.448 115.024C104.82 101.572 111.242 91.3139 119.015 80.7553C120.08 79.3079 122.292 78.0707 124.531 78.2707C124.534 78.2707 124.537 78.2705 124.54 78.2703C124.542 78.2705 124.544 78.2706 124.546 78.2707C126.411 78.3943 128.021 79.3554 129.377 81.1542L147.564 112.549C148.725 114.553 149.306 116.733 149.359 118.896C149.375 119.155 149.383 119.417 149.383 119.68C149.383 126.802 143.609 132.575 136.488 132.575C136.41 132.575 136.333 132.574 136.255 132.573C136.177 132.574 136.099 132.575 136.021 132.575H112.529C112.512 132.575 112.494 132.575 112.476 132.575C105.355 132.575 99.5814 126.802 99.5814 119.68C99.5814 118.761 99.6775 117.865 99.8603 117C99.8711 116.893 99.893 116.784 99.927 116.673C99.9381 116.637 99.9493 116.6 99.9605 116.564C100.091 116.037 100.254 115.523 100.448 115.024V115.024ZM117.101 61.2246C117.101 61.2381 117.101 61.2517 117.101 61.2652C117.101 62.2686 117.016 63.0577 116.633 63.9306C99.0564 103.962 59.2783 132.035 12.8823 132.567C5.72678 132.326 0 126.45 0 119.235C0 116.887 0.619766 114.581 1.79667 112.549L63.1356 6.65556C66.8283 0.280584 74.9898 -1.89382 81.3648 1.79889C83.3797 2.96605 85.0541 4.64033 86.2213 6.65525L116.339 58.6462C116.776 59.3772 117.03 60.2367 117.101 61.2245L117.101 61.2246ZM118.257 47.6463C118.235 45.8012 119.205 43.5404 121.251 41.0981L131.313 29.9788C133.934 26.8506 138.158 26.862 140.77 29.9788L150.831 41.0981C152.878 43.5416 153.85 45.8018 153.829 47.6463C153.85 49.4908 152.878 51.7511 150.831 54.1946L140.77 65.3138C138.158 68.4307 133.934 68.442 131.313 65.3138L121.251 54.1946C119.205 51.7522 118.235 49.4915 118.257 47.6463Z" fill="url(#paint0_linear)"/>
</g>
<defs>
<linearGradient id="paint0_linear" x1="153.829" y1="6.28253" x2="48.6721" y2="137.888" gradientUnits="userSpaceOnUse">
<stop stop-color="white"/>
<stop offset="1" stop-color="white" stop-opacity="0.85"/>
</linearGradient>
<clipPath id="clip0">
<rect width="153.85" height="133.396" fill="white"/>
</clipPath>
</defs>
</svg>
