<svg width="145" height="137" viewBox="0 0 145 137" fill="none" xmlns="http://www.w3.org/2000/svg">
<g clip-path="url(#clip0)">
<path d="M78.7563 0.598877H77.2591C72.2975 0.598877 68.2755 4.62097 68.2755 9.58248C68.2755 14.544 72.2975 18.5661 77.2591 18.5661H78.7563C83.7178 18.5661 87.7399 14.544 87.7399 9.58248C87.7399 4.62097 83.7178 0.598877 78.7563 0.598877Z" fill="white"/>
<path d="M83.2481 30.1699H77.2591C72.2975 30.1699 68.2755 34.192 68.2755 39.1535C68.2755 44.115 72.2975 48.1371 77.2591 48.1371H83.2481C88.2096 48.1371 92.2317 44.115 92.2317 39.1535C92.2317 34.192 88.2096 30.1699 83.2481 30.1699Z" fill="white"/>
<path d="M128.166 30.1699H108.702C103.74 30.1699 99.7181 34.192 99.7181 39.1535C99.7181 44.115 103.74 48.1371 108.702 48.1371H128.166C133.128 48.1371 137.15 44.115 137.15 39.1535C137.15 34.192 133.128 30.1699 128.166 30.1699Z" fill="white"/>
<path d="M104.21 59.741H77.2591C72.2975 59.741 68.2755 63.7631 68.2755 68.7246C68.2755 73.6861 72.2975 77.7082 77.2591 77.7082H104.21C109.171 77.7082 113.193 73.6861 113.193 68.7246C113.193 63.7631 109.171 59.741 104.21 59.741Z" fill="white"/>
<path d="M135.652 59.741H129.663C124.702 59.741 120.68 63.7631 120.68 68.7246C120.68 73.6861 124.702 77.7082 129.663 77.7082H135.652C140.614 77.7082 144.636 73.6861 144.636 68.7246C144.636 63.7631 140.614 59.741 135.652 59.741Z" fill="white"/>
<path d="M128.166 89.3119H119.183C114.221 89.3119 110.199 93.334 110.199 98.2955C110.199 103.257 114.221 107.279 119.183 107.279H128.166C133.128 107.279 137.15 103.257 137.15 98.2955C137.15 93.334 133.128 89.3119 128.166 89.3119Z" fill="white"/>
<path d="M93.729 89.3119H77.2591C72.2975 89.3119 68.2755 93.334 68.2755 98.2955C68.2755 103.257 72.2975 107.279 77.2591 107.279H93.729C98.6905 107.279 102.713 103.257 102.713 98.2955C102.713 93.334 98.6905 89.3119 93.729 89.3119Z" fill="white"/>
<path d="M84.7454 118.883H77.2591C72.2975 118.883 68.2755 122.905 68.2755 127.867C68.2755 132.828 72.2975 136.85 77.2591 136.85H84.7454C89.7069 136.85 93.729 132.828 93.729 127.867C93.729 122.905 89.7069 118.883 84.7454 118.883Z" fill="white"/>
<path d="M119.183 121.878C119.183 116.916 115.16 112.894 110.199 112.894C105.237 112.894 101.215 116.916 101.215 121.878C101.215 126.839 105.237 130.861 110.199 130.861C115.16 130.861 119.183 126.839 119.183 121.878Z" fill="white"/>
<path d="M105.707 6.58795H104.21C99.2484 6.58795 95.2263 10.61 95.2263 15.5716C95.2263 20.5331 99.2484 24.5552 104.21 24.5552H105.707C110.669 24.5552 114.691 20.5331 114.691 15.5716C114.691 10.61 110.669 6.58795 105.707 6.58795Z" fill="white"/>
<path d="M31.9003 68.4498C34.0012 69.858 35.8276 71.5456 37.2254 73.6203C41.2981 79.6655 41.177 84.2059 40.6995 90.9192C40.6106 92.1691 39.173 99.7376 38.5004 102.446C37.1488 107.889 36.7824 109.672 36.7824 112.19C36.7824 114.708 37.2254 116.622 39.1729 117.731C40.9559 118.747 45.2106 118.682 50.3143 118.706C59.1256 118.747 60.1652 124.879 60.1652 128.226C60.1652 131.573 57.0778 136.075 52.1421 136.58C32.0675 138.632 19.1565 128.814 19.1565 113.688C19.1565 109.892 22.1048 97.1386 22.2703 96.023C23.3424 88.7981 21.5794 84.1539 19.6816 81.7029C17.7838 79.2519 16.9838 78.5268 9.15951 77.9073C4.20744 77.5152 0.175903 73.8852 0.175903 68.9237C0.175903 68.7647 0.180031 68.6067 0.188186 68.4498C0.180031 68.2929 0.175903 68.1349 0.175903 67.9759C0.175903 63.0144 4.20744 59.3844 9.15951 58.9923C16.9838 58.3728 17.7838 57.6477 19.6816 55.1967C21.5794 52.7457 23.3424 48.1015 22.2703 40.8766C22.1048 39.761 19.1565 27.0078 19.1565 23.2119C19.1565 8.08525 32.0675 -1.73283 52.1421 0.320033C57.0778 0.824771 60.1652 5.3263 60.1652 8.67367C60.1652 12.021 59.1256 18.1528 50.3143 18.194C45.2106 18.2179 40.9559 18.1528 39.1729 19.1684C37.2254 20.2777 36.7824 22.1912 36.7824 24.7092C36.7824 27.2272 37.1488 29.0104 38.5004 34.4537C39.173 37.162 40.6106 44.7305 40.6995 45.9804C41.177 52.6937 41.2981 57.2341 37.2254 63.2793C35.8276 65.354 34.0012 67.0416 31.9003 68.4498V68.4498Z" fill="white"/>
</g>
<defs>
<clipPath id="clip0">
<rect width="144.636" height="136.85" fill="white"/>
</clipPath>
</defs>
</svg>
