<svg width="104" height="133" viewBox="0 0 104 133" fill="none" xmlns="http://www.w3.org/2000/svg">
<path fill-rule="evenodd" clip-rule="evenodd" d="M73.7893 43.0751V31.0889C73.7893 31.0889 74.1639 18.541 80.1569 18.541C83.9399 18.541 85.708 24.3613 86.4977 28.6542L86.5318 28.8399L86.5246 28.8415C86.5246 28.8415 86.9368 31.0434 86.5318 28.8399L102.698 25.2831C102.698 25.2831 103.182 29.3376 102.698 25.0959C101.608 15.5405 97.1629 0 79.7824 0C54.6865 0 56.9339 28.0924 56.9339 28.0924V43.0751V104.504V104.504C56.9339 104.504 54.6865 132.596 79.7824 132.596C104.878 132.596 103.005 100.196 103.005 100.196L87.0864 99.4471C87.0864 99.4471 86.15 114.055 80.1569 114.055C74.1639 114.055 73.7893 101.507 73.7893 101.507V43.0751ZM2.64316e-06 1.4986V18.3536L0 45.3223L2.64316e-06 62.1777V131.098H16.8554V62.1777H34.8346L34.8346 45.3223H16.8554V18.3536L43.8241 18.3536L43.8241 1.49815L0 1.49815L2.64316e-06 1.4986Z" fill="white"/>
</svg>
