<svg width="123" height="138" viewBox="0 0 123 138" fill="none" xmlns="http://www.w3.org/2000/svg">
<g clip-path="url(#clip0)">
<path d="M80.0832 73.5814V89.9628C80.0832 92.0394 78.4209 93.7228 76.3704 93.7228C75.7764 93.7228 75.2149 93.5816 74.717 93.3304C74.6391 93.3033 74.5616 93.2734 74.4845 93.2407L23.2415 71.5072C22.5048 71.1574 22.0135 70.7193 21.7128 70.2217C21.2432 69.6124 20.9648 68.8009 20.9648 67.7998V24.6874C20.8514 24.5415 20.7471 24.3864 20.653 24.2227L18.2862 23.2538L7.54136 18.8549V121.765L20.9648 127.26V92.6741C20.9648 92.6203 20.9659 92.5667 20.9681 92.5135C20.9423 91.9718 21.0324 91.4159 21.253 90.8824C22.0451 88.9669 24.2206 88.0645 26.1119 88.8667L76.2281 110.124L78.0617 110.959C78.3012 111.068 78.5237 111.2 78.7279 111.351C79.986 111.942 80.6563 112.518 80.6563 114.317V121.765L93.9506 127.207L94.0798 127.26V67.2963L80.0832 73.5814ZM72.6575 75.0515L46.1353 63.5895L35.1782 68.2145L72.6575 84.2903V75.0515ZM28.3905 97.9861V127.832L41.814 122.337V103.679L28.3905 97.9861ZM101.506 127.837L115.5 122.108V19.0653L101.506 24.7946V37.3634C101.506 38.5501 100.963 39.6084 100.115 40.2975C99.7369 40.7801 99.2364 41.1754 98.6353 41.4291L55.7865 59.5157L75.1839 67.7426C75.3239 67.6678 75.4607 67.6005 75.5927 67.5414L95.9353 58.2368C97.8108 57.3971 100.179 57.7963 101.119 59.8689C101.303 60.2738 101.403 60.6887 101.431 61.1005C101.48 61.4666 101.506 61.8864 101.506 62.3679V127.837ZM94.0798 24.6874C93.9664 24.5415 93.862 24.3864 93.7679 24.2227L91.4012 23.2538L80.6563 18.8549V27.5845L94.0798 33.08V24.6874ZM75.3506 9.35026C75.4728 9.28463 75.5994 9.22476 75.7305 9.17112L96.2763 0.759757C97.3137 0.171255 98.5985 0.0553697 99.7799 0.55734L120.474 9.35012C120.912 9.53618 121.3 9.79196 121.631 10.0994C122.413 10.7535 122.927 11.6694 122.927 12.7934V12.9938C122.927 13.055 122.927 13.1164 122.927 13.1778V125.019C122.927 126.048 122.61 126.767 122.092 127.312C121.754 127.75 121.216 128.141 120.424 128.489L100.149 136.958C99.0974 137.389 97.8955 137.41 96.8629 137.047C96.6031 136.998 96.3442 136.923 96.0896 136.818L90.9534 134.716L75.7305 128.483C74.5322 127.993 73.6965 126.981 73.3754 125.81C73.2897 125.509 73.2401 125.192 73.2318 124.865C73.2293 124.789 73.2288 124.712 73.2306 124.635V117.004L73.1808 116.981L73.2306 116.869V117.004L49.2397 106.829V124.988C49.2397 125.1 49.2349 125.21 49.2254 125.32C49.2202 126.917 48.2765 128.427 46.7245 129.062L26.7475 137.24C25.6593 137.686 24.4911 137.612 23.5111 137.133C23.3843 137.096 23.2591 137.052 23.1359 137.002L18.2862 134.899L2.61551 128.483C1.79842 128.149 1.14994 127.572 0.718242 126.868C0.332826 126.385 0.114563 125.796 0.114563 125.019V124.821C0.114563 124.759 0.114563 124.697 0.114563 124.635V13.1756C0.114563 13.1188 0.114563 13.0618 0.114563 13.0047C0.114563 12.9476 0.114563 12.8906 0.114563 12.8337V12.7934C0.114563 11.6478 0.62146 10.622 1.41927 9.9323C1.76061 9.61702 2.1621 9.35674 2.61551 9.17112L23.1614 0.759757C24.1987 0.171255 25.4835 0.0553697 26.6649 0.55734L47.3594 9.35012C47.5009 9.41023 47.6371 9.47762 47.768 9.55167C48.996 10.1866 49.8109 11.3144 49.8109 12.7922V12.9938C49.8123 13.055 49.8123 13.1164 49.8109 13.1778V37.6225L73.2306 28.0696V13.1756C73.2293 13.1188 73.2292 13.0618 73.2303 13.0047C73.2292 12.9476 73.2293 12.8906 73.2306 12.8337V12.7922C73.2306 10.4986 74.0017 9.89267 75.3506 9.35026ZM28.3905 62.9324L42.3852 57.0252V19.0653L28.3905 24.7946V62.9324ZM49.8109 45.7297V53.8908L86.1296 38.5606L76.8729 34.7709C76.8407 34.7577 76.8088 34.7442 76.7771 34.7302L49.8109 45.7297ZM87.7037 13.0047L94.3983 15.7454L98.3352 17.3572L108.681 13.1217L98.2467 8.68843L87.7037 13.0047ZM14.5887 13.0047L21.2834 15.7454L25.2202 17.3572L35.5659 13.1217L25.1317 8.68843L14.5887 13.0047Z" fill="white"/>
</g>
<defs>
<clipPath id="clip0">
<rect width="122.927" height="137.541" fill="white"/>
</clipPath>
</defs>
</svg>
