<svg width="440" height="232" viewBox="0 0 440 232" fill="none" xmlns="http://www.w3.org/2000/svg">
  <path d="M262.918 6.13308C264.55 6.04578 270.626 5.9569 272.147 5.92366C278.297 5.53141 281.707 5.9569 282.845 6.02837C283.055 6.02837 283.265 5.88875 283.475 5.60953C283.684 5.3303 283.859 5.05107 283.999 4.77184C284.209 4.4228 284.314 4.14357 284.314 3.93415C283.894 1.83992 282.67 0.653198 280.643 0.373968C277.916 0.0249312 275.119 -0.0797799 272.252 0.0598349C262.254 0.408872 247.993 0.792813 237.995 1.21166C235.198 1.28146 232.401 1.38618 229.604 1.52579C228.066 1.52579 226.528 1.56069 224.989 1.6305C221.423 1.70031 217.857 1.87483 214.291 2.15406C208.278 2.71252 202.3 3.20117 196.357 3.62001C186.568 4.3879 176.779 5.26049 166.99 6.23779C151.538 7.91317 136.015 9.93759 120.423 12.311C104.901 14.7543 89.3435 17.5117 73.7512 20.5832C62.2143 22.8171 50.6774 25.5046 39.1405 28.646C39.0706 28.646 39.0007 28.646 38.9308 28.646C35.3648 29.6233 31.7989 30.6355 28.2329 31.6826C24.667 32.7297 21.1709 33.9862 17.7448 35.4522C14.039 36.988 10.4381 38.6982 6.94211 40.583C5.05426 41.7 3.3412 43.0961 1.80295 44.7715C0.474461 46.1676 -0.119864 47.7383 0.0199773 49.4835C0.36958 53.8116 2.36232 56.918 5.99818 58.8028C10.6129 61.1762 12.2378 61.0798 17.6916 61.9175C17.9013 61.9175 18.146 61.8477 18.4257 61.7081C18.7753 61.5685 19.055 61.4289 19.2648 61.2893C19.4745 61.0798 19.6144 60.8355 19.6843 60.5563C19.7542 60.2072 19.7542 59.928 19.6843 59.7186C19.5445 58.2526 17.9579 57.2753 16.6294 56.7867C15.6772 56.4364 13.9252 56.0695 13.4481 55.9108C13.0271 55.7707 13.1763 55.7777 12.7106 55.6614C12.4309 55.5916 12.1862 55.5218 11.9764 55.452C9.87877 54.8238 8.02588 53.8814 6.41771 52.6248C6.20795 52.3456 6.10306 51.9966 6.10306 51.5777C6.10306 51.0891 6.27787 50.7051 6.62747 50.4259C7.04699 50.1467 7.46652 49.8325 7.88604 49.4835C8.93485 48.6458 10.0536 47.9128 11.2422 47.2846C15.2976 44.9809 19.4928 43.2008 23.8279 41.9443C25.1564 41.5254 26.4499 41.1066 27.7085 40.6878C33.8615 38.803 40.0495 37.0578 46.2724 35.4522C59.0679 32.2411 71.8633 29.4139 84.6588 26.9706C97.5242 24.5273 110.39 22.3284 123.255 20.3738C141.085 17.5117 158.914 15.0335 176.744 12.9393C190.029 11.3337 203.244 9.97249 216.389 8.85557C217.228 8.78576 218.067 8.71596 218.906 8.64615C228.276 7.80846 237.575 7.18019 246.805 6.76135C250.79 6.55193 259.002 6.3425 262.918 6.13308ZM6.83723 205.345C6.97707 205.345 7.08195 205.345 7.15187 205.345C7.29171 205.345 7.39659 205.31 7.46652 205.24C7.53644 205.24 7.60636 205.206 7.67628 205.136C7.88604 204.926 8.06084 204.682 8.20068 204.403C9.24949 203.216 10.2284 202.029 11.1373 200.843C13.9342 196.933 16.731 193.024 19.5278 189.115C24.2125 182.413 28.9671 175.747 33.7916 169.115C46.0976 152.292 58.6484 135.677 71.4438 119.273C84.3092 102.868 97.2445 86.533 110.25 70.2678C115.773 63.2871 121.262 56.3063 126.716 49.3256C128.114 47.5106 129.548 45.6607 131.016 43.7759C132.205 42.3099 133.254 40.8091 134.163 39.2733C135.211 37.3187 135.386 35.399 134.687 33.5142C134.267 32.6067 133.568 32.1181 132.589 32.0483C131.68 31.9086 130.806 32.3275 129.967 33.3048C128.709 34.7009 127.52 36.132 126.401 37.5979C124.444 39.9714 122.486 42.3449 120.528 44.7183C115.773 50.5123 111.054 56.3761 106.369 62.3098C104.971 64.1248 103.537 65.9398 102.069 67.7548C92.0704 80.3201 82.2116 92.9552 72.4926 105.66C61.0956 120.739 49.9432 135.992 39.0356 151.419C28.128 166.846 17.3603 182.344 6.73235 197.911C6.73235 197.981 6.69739 198.05 6.62747 198.12C6.13802 198.818 5.68354 199.516 5.26402 200.214C4.70465 201.052 4.49489 201.96 4.63473 202.937C4.84449 203.914 5.33394 204.717 6.10306 205.345C6.17299 205.345 6.24291 205.345 6.31283 205.345C6.38275 205.345 6.48763 205.345 6.62747 205.345C6.69739 205.345 6.76731 205.345 6.83723 205.345Z" fill="white"/>
  <path d="M114.075 136.55C113.446 136.69 113.306 136.48 113.656 135.922C114.215 135.014 114.81 134.107 115.439 133.199C115.928 132.362 116.418 131.559 116.907 130.791C117.536 129.744 118.201 128.732 118.9 127.754C120.578 125.032 122.256 122.309 123.934 119.587C124.494 118.609 124.598 117.632 124.249 116.655C123.899 115.608 123.165 114.735 122.046 114.037C121.837 113.897 121.592 113.828 121.312 113.828C121.032 113.758 120.788 113.758 120.578 113.828C119.879 114.246 119.284 114.77 118.795 115.398C108.657 129.36 98.518 143.356 88.3796 157.387C87.4007 158.574 86.5616 159.866 85.8624 161.262C85.0234 163.077 85.338 164.822 86.8064 166.497C87.4356 167.265 88.1698 167.754 89.0089 167.963C89.778 168.173 90.4772 168.033 91.1065 167.544C93.2041 165.66 95.2667 163.74 97.2944 161.785C108.202 151.454 119.879 142.065 132.325 133.618C132.954 133.199 133.618 132.85 134.317 132.571C134.597 132.431 134.842 132.327 135.052 132.257C135.611 132.047 135.821 132.222 135.681 132.78C135.471 133.339 135.261 133.897 135.052 134.456C134.772 135.363 134.492 136.271 134.212 137.178C133.933 138.016 133.898 138.819 134.108 139.587C134.457 140.913 134.982 142.169 135.681 143.356C136.45 144.473 137.499 145.416 138.827 146.183C139.596 146.532 140.47 146.672 141.449 146.602C141.589 146.602 141.729 146.602 141.869 146.602C142.288 146.602 142.603 146.428 142.813 146.079C143.022 145.66 143.057 145.276 142.918 144.927C142.848 144.787 142.778 144.648 142.708 144.508C142.568 144.159 142.358 143.81 142.079 143.461C140.4 141.925 140.191 140.285 141.449 138.539C143.057 136.306 144.631 134.037 146.169 131.733C146.658 131.035 147.148 130.337 147.637 129.639C147.847 129.43 148.022 129.185 148.162 128.906C148.721 128.138 149.28 127.3 149.84 126.393C150.399 125.206 150.434 123.915 149.945 122.519C149.245 120.773 148.162 119.552 146.693 118.854C145.295 118.156 143.792 118.156 142.183 118.854C142.044 118.924 141.904 118.959 141.764 118.959C140.226 119.657 138.722 120.424 137.254 121.262C132.08 124.613 126.906 128.033 121.732 131.524C120.333 132.501 118.935 133.513 117.536 134.56C116.627 135.189 115.718 135.817 114.81 136.445C114.81 136.515 114.74 136.55 114.6 136.55C114.53 136.55 114.46 136.55 114.39 136.55C114.25 136.55 114.145 136.55 114.075 136.55Z" fill="white"/>
  <path d="M186.233 117.911C181.269 117.911 175.186 119.796 167.984 123.566C164.768 125.381 161.586 127.65 158.44 130.372C156.832 131.768 155.573 132.99 154.664 134.037C151.098 137.527 149.315 141.262 149.315 145.241V145.45C149.315 147.754 150.015 150.058 151.413 152.361C152.182 153.618 153.196 154.735 154.454 155.712C156.622 157.527 159.838 158.435 164.104 158.435C164.313 158.435 164.418 158.435 164.418 158.435C167.075 158.435 170.082 158.12 173.438 157.492C174.207 157.492 177.318 156.724 182.772 155.189C186.688 154.072 190.359 152.85 193.785 151.524C203.364 147.894 211.754 143.705 218.956 138.958C220.634 137.841 222.452 136.375 224.41 134.56V134.456C224.41 134.386 224.375 134.211 224.305 133.932C224.025 133.304 223.431 132.99 222.522 132.99C222.103 132.99 221.718 133.025 221.368 133.095C220.879 133.095 217.313 134.77 210.671 138.121C203.259 141.611 194.344 144.787 183.926 147.649C173.018 150.302 165.537 151.628 161.481 151.628C159.873 151.628 158.405 151.489 157.077 151.21C155.608 150.721 154.874 149.813 154.874 148.487C154.874 147.37 155.678 145.59 157.286 143.147C157.846 142.379 158.755 141.262 160.013 139.796C162.74 137.283 163.671 136.703 164.51 136.354H164.824C166.153 137.122 168.753 136.655 170.921 136.655C172.879 136.655 175.501 136.306 178.787 135.608C181.374 134.91 183.472 134.211 185.08 133.513C187.317 132.536 189.555 131.349 191.792 129.953C193.33 128.766 194.099 127.405 194.099 125.869V125.451C194.099 124.054 193.47 122.519 192.212 120.843C191.163 119.726 190.219 118.993 189.38 118.644C188.191 118.156 187.142 117.911 186.233 117.911ZM169.006 131.956C169.006 131.398 172.249 129.534 175.326 128.068C181.199 125.625 185.15 124.369 187.177 124.299C187.667 124.369 187.911 124.473 187.911 124.613C187.911 125.032 187.094 126.797 185.389 127.648C183.685 128.499 183.861 128.442 181.554 129.35C176.794 131.816 171.453 132.27 169.636 132.27C169.216 132.27 169.006 132.165 169.006 131.956Z" fill="white"/>
  <path d="M257.972 164.613C259.16 164.682 260.349 164.543 261.538 164.194C262.726 163.914 263.88 163.6 264.999 163.251C265.069 163.251 265.139 163.216 265.209 163.147C266.397 162.728 268.565 161.681 271.711 160.005C274.928 158.4 278.494 156.445 282.409 154.141C286.325 151.838 290.065 149.464 293.631 147.021C297.197 144.508 299.959 142.239 301.917 140.215C303.945 138.121 304.609 136.48 303.91 135.293C303.7 135.014 303.28 134.84 302.651 134.77C302.022 134.63 301.393 134.595 300.763 134.665C300.134 134.665 299.679 134.735 299.4 134.875C297.862 136.48 295.344 138.644 291.848 141.367C288.352 144.019 283.738 146.777 278.004 149.639C272.271 152.431 265.348 154.874 257.238 156.969C256.818 157.038 256.469 156.934 256.189 156.655C255.909 156.375 255.769 156.061 255.769 155.712C256.049 154.386 256.504 153.164 257.133 152.047C257.762 150.86 258.461 149.744 259.23 148.696C259.23 148.557 259.265 148.452 259.335 148.382C263.81 141.402 268.984 135.014 274.858 129.22C275.137 128.871 275.417 128.557 275.697 128.278C276.466 127.58 277.235 126.812 278.004 125.974C278.633 125.136 278.703 124.194 278.214 123.147C277.724 121.751 276.85 120.599 275.592 119.691C275.172 119.342 274.683 119.168 274.124 119.168C273.634 119.168 273.215 119.308 272.865 119.587C271.886 120.355 270.942 121.157 270.033 121.995C264.719 126.882 259.056 131.21 253.042 134.979C247.029 138.679 240.736 141.96 234.164 144.822C231.227 146.079 228.186 147.126 225.039 147.963C224.76 148.033 224.27 148.103 223.571 148.173C222.942 148.243 222.242 148.243 221.473 148.173C220.774 148.103 220.215 147.963 219.795 147.754C219.376 147.475 219.271 147.056 219.481 146.498C221.508 142.868 224.13 139.761 227.347 137.178C230.633 134.526 234.234 132.327 238.149 130.581C242.065 128.836 245.98 127.405 249.896 126.288C252.483 125.59 254.546 125.241 256.084 125.241C257.692 125.171 259.091 125.241 260.279 125.451C261.398 125.66 262.657 125.765 264.055 125.765C264.335 125.625 264.579 125.241 264.789 124.613C264.999 123.985 264.964 123.252 264.684 122.414C264.474 121.576 263.81 120.773 262.691 120.006C260.804 118.609 258.706 117.737 256.399 117.388C254.161 116.969 251.854 117.004 249.477 117.493C243.254 118.609 237.555 120.669 232.381 123.671C227.207 126.672 222.522 130.547 218.327 135.293C216.998 136.759 215.88 138.4 214.971 140.215C214.062 142.239 213.852 144.333 214.341 146.498C214.831 148.662 215.88 150.511 217.488 152.047C219.096 153.583 221.054 154.386 223.361 154.456C226.368 154.595 229.304 154.211 232.171 153.304C236.716 151.768 241.086 149.918 245.281 147.754C246.75 147.126 248.218 146.498 249.686 145.869C249.826 145.799 249.966 145.765 250.106 145.765C250.176 145.695 250.246 145.695 250.316 145.765C250.455 145.834 250.595 145.904 250.735 145.974C250.805 146.044 250.875 146.148 250.945 146.288C251.015 146.358 251.05 146.428 251.05 146.498C250.84 147.196 250.595 147.929 250.316 148.696C249.896 149.813 249.546 150.965 249.267 152.152C248.777 154.176 248.952 156.236 249.791 158.33C250.63 160.424 251.924 162.065 253.672 163.251C254.93 164.159 256.364 164.613 257.972 164.613Z" fill="white"/>
  <path d="M318.173 93.8278C318.173 93.758 318.173 93.7231 318.173 93.7231C318.733 93.7231 319.327 93.7231 319.956 93.7231C323.313 93.7231 326.669 93.7231 330.025 93.7231C330.095 93.7231 330.165 93.758 330.235 93.8278C330.375 93.8278 330.479 93.8627 330.549 93.9325C330.619 93.9325 330.654 93.9674 330.654 94.0373C330.654 94.1071 330.689 94.1769 330.759 94.2467C330.759 94.5259 330.759 94.8051 330.759 95.0844C330.759 95.2938 330.724 95.4683 330.654 95.6079C329.605 96.8644 328.557 98.121 327.508 99.3775C327.438 99.3775 327.368 99.4124 327.298 99.4822C325.34 101.716 323.348 103.985 321.32 106.288C316.845 111.105 312.475 115.992 308.21 120.948C304.224 125.695 300.449 130.581 296.883 135.608C295.414 137.772 294.086 140.005 292.897 142.309C292.548 143.007 292.198 143.705 291.848 144.403C290.8 146.498 290.31 148.696 290.38 151C290.31 153.932 291.289 156.48 293.317 158.644C294.715 160.18 296.428 161.017 298.456 161.157C301.323 161.436 304.119 161.192 306.846 160.424C309.294 159.656 311.706 158.853 314.083 158.016C320.656 155.642 326.914 152.745 332.857 149.325C338.8 145.904 344.499 142.03 349.952 137.702C350.022 137.632 350.127 137.562 350.267 137.492C350.617 137.283 351.036 136.969 351.526 136.55C352.015 136.061 352.4 135.573 352.679 135.084C352.959 134.595 352.924 134.177 352.574 133.827C352.295 133.548 351.63 133.548 350.582 133.827C349.533 134.037 348.379 134.491 347.121 135.189C343.065 137.632 337.926 140.285 331.703 143.147C325.48 145.939 319.257 148.417 313.034 150.581C306.881 152.675 301.847 153.967 297.931 154.456C297.302 154.456 296.813 154.246 296.463 153.827C296.044 153.339 295.939 152.85 296.148 152.361C296.498 151.593 296.848 150.86 297.197 150.162C298.106 147.998 299.155 145.974 300.344 144.089C303.42 139.342 306.741 134.805 310.307 130.477C316.88 122.868 323.522 115.329 330.235 107.859C331.214 106.742 332.227 105.625 333.276 104.508C335.234 102.344 337.227 100.215 339.254 98.121C340.373 97.0041 341.492 95.8522 342.611 94.6655C344.009 93.1298 345.757 92.3619 347.855 92.3619C349.463 92.2921 351.071 92.2223 352.679 92.1525C353.868 92.0826 355.057 92.0128 356.245 91.943C358.832 91.8732 361.419 91.8034 364.006 91.7336C368.202 91.6638 372.397 91.5591 376.592 91.4195C377.431 91.3497 378.235 91.1751 379.004 90.8959C379.144 90.7563 379.249 90.5469 379.319 90.2676C379.459 89.9186 379.529 89.6394 379.529 89.43C378.76 87.4055 377.326 86.1839 375.229 85.7651C373.83 85.5556 372.432 85.4858 371.033 85.5556C368.586 85.6255 366.139 85.7302 363.692 85.8698C362.153 85.9396 360.65 86.0094 359.182 86.0792C359.042 86.0792 358.937 86.0792 358.867 86.0792C357.259 86.149 355.686 86.149 354.148 86.0792C353.938 86.0792 353.728 86.0094 353.518 85.8698C353.309 85.6604 353.134 85.4509 352.994 85.2415C352.924 85.1019 352.889 84.9623 352.889 84.8227C352.959 84.6831 353.029 84.5434 353.099 84.4038C353.239 84.1944 353.413 83.985 353.623 83.7756C354.252 82.8681 354.987 82.0304 355.826 81.2625C361.839 75.6081 367.852 69.9886 373.865 64.404C375.473 62.938 377.081 61.4372 378.69 59.9014C379.179 59.4826 379.669 59.0637 380.158 58.6449C381.137 57.7374 382.081 56.8299 382.99 55.9224C383.829 54.9451 384.004 53.898 383.514 52.7811C383.025 51.6641 382.326 50.9661 381.417 50.6868C380.508 50.3378 379.634 50.4774 378.795 51.1057C377.396 52.083 376.033 53.0952 374.704 54.1423C364.706 62.3796 355.091 71.0706 345.862 80.2154C345.442 80.6342 345.023 81.0531 344.603 81.4719C343.415 82.6586 342.226 83.8105 341.037 84.9274C339.989 85.9745 338.73 86.533 337.262 86.6028C336.772 86.6726 336.283 86.7075 335.793 86.7075C335.164 86.7075 334.535 86.7075 333.906 86.7075C331.878 86.8471 329.85 86.9518 327.822 87.0216C320.551 87.3008 313.279 87.615 306.007 87.964C304.889 88.0338 303.77 88.2432 302.651 88.5923C302.441 88.6621 302.197 88.7319 301.917 88.8017C301.358 88.9413 301.148 89.3951 301.288 90.1629C301.707 92.1175 302.826 93.1996 304.644 93.409C307.86 93.6184 311.111 93.758 314.398 93.8278C315.656 93.8278 316.915 93.8278 318.173 93.8278Z" fill="white"/>
  <path d="M354.777 195.502C354.847 195.502 354.917 195.572 354.987 195.712C355.057 195.782 355.091 195.851 355.091 195.921C355.161 195.991 355.196 196.061 355.196 196.131C355.126 196.619 354.987 197.073 354.777 197.492C349.882 205.171 344.324 212.291 338.101 218.853C338.101 218.923 338.066 218.958 337.996 218.958C337.716 219.307 337.402 219.586 337.052 219.795C336.632 220.075 336.143 220.144 335.584 220.005C335.444 220.005 335.339 219.935 335.269 219.795C335.129 219.726 335.024 219.656 334.954 219.586C334.884 219.516 334.849 219.481 334.849 219.481C334.849 219.202 334.884 218.923 334.954 218.644C335.024 217.876 335.234 217.178 335.584 216.549C335.933 216.061 336.283 215.572 336.632 215.083C339.359 211.174 342.191 207.37 345.128 203.67C346.946 201.506 348.869 199.481 350.896 197.597C351.735 196.829 352.539 196.061 353.309 195.293C353.728 194.874 354.217 194.944 354.777 195.502ZM378.27 149.744C378.41 149.674 378.62 149.674 378.899 149.744C379.179 149.744 379.424 149.813 379.634 149.953C379.773 150.023 379.878 150.162 379.948 150.372C380.018 150.511 380.053 150.686 380.053 150.895C380.123 151.035 380.158 151.175 380.158 151.314C379.109 153.478 378.06 155.677 377.012 157.911C376.033 160.005 375.054 162.099 374.075 164.194C372.956 166.428 371.383 168.312 369.355 169.848C364.461 173.618 359.636 177.492 354.882 181.471C347.75 187.265 341.387 193.757 335.793 200.947C333.136 204.508 330.654 208.172 328.347 211.942C328.207 212.151 328.067 212.396 327.927 212.675C326.459 214.979 325.515 217.596 325.096 220.528C324.816 223.321 325.76 226.008 327.927 228.591C329.256 230.127 330.724 231.139 332.332 231.628C333.871 232.186 335.304 232.116 336.632 231.418C338.45 230.441 340.094 229.324 341.562 228.068C344.079 225.973 346.351 223.705 348.379 221.261C352.784 215.886 356.944 210.371 360.86 204.717C363.517 200.878 366.069 196.933 368.516 192.885C371.033 188.906 373.341 184.787 375.438 180.529C377.746 175.782 381.102 171.942 385.507 169.01C394.806 162.658 404.35 156.655 414.139 151C420.432 147.44 426.69 143.88 432.913 140.32C434.311 139.482 435.71 138.679 437.108 137.911C437.947 137.353 438.786 136.794 439.625 136.236C439.975 135.957 440.08 135.538 439.94 134.979C439.87 134.351 439.625 133.793 439.206 133.304C438.087 132.466 435.465 132.85 431.34 134.456C427.215 136.061 422.53 138.225 417.286 140.948C412.042 143.601 407.287 146.148 403.022 148.592C398.757 151.035 395.925 152.641 394.527 153.408C394.037 153.688 393.443 153.897 392.744 154.037C392.044 154.176 391.415 154.211 390.856 154.141C390.366 154.072 390.087 153.897 390.017 153.618C389.947 153.199 389.877 152.815 389.807 152.466C389.807 152.047 389.877 151.698 390.017 151.419C390.926 149.255 391.87 147.126 392.849 145.032C393.408 143.705 394.002 142.379 394.632 141.053C394.771 140.773 394.911 140.459 395.051 140.11C395.96 138.156 396.799 136.166 397.568 134.142C398.267 131.698 397.254 129.395 394.527 127.231C392.918 126.044 391.625 125.869 390.646 126.707C388.898 128.452 387.22 130.232 385.612 132.047C379.319 138.749 371.977 144.299 363.587 148.696C360.58 150.442 357.154 151.593 353.309 152.152C352.679 152.222 352.015 151.977 351.316 151.419C350.617 150.791 350.197 150.128 350.057 149.429C350.267 146.986 351.001 144.857 352.26 143.042C353.518 141.157 354.917 139.412 356.455 137.807C357.434 136.759 358.343 135.747 359.182 134.77C360.021 133.723 360.65 132.606 361.07 131.419C361.279 130.721 361.035 129.953 360.336 129.115C359.636 128.278 358.832 127.51 357.923 126.812C357.504 126.602 356.735 126.742 355.616 127.231C354.567 127.65 353.483 128.173 352.365 128.801C351.316 129.36 350.686 129.779 350.477 130.058C349.987 130.547 349.533 131.035 349.113 131.524C347.715 132.92 346.491 134.386 345.442 135.922C344.394 137.457 343.799 139.272 343.659 141.367C343.45 145.625 344.953 149.674 348.169 153.513C351.176 157.073 354.637 158.679 358.553 158.33C361.909 157.981 364.915 157.108 367.572 155.712C369.18 154.805 370.754 153.897 372.292 152.99C374.25 151.943 376.242 150.86 378.27 149.744Z" fill="white"/>
</svg>
