<svg width="47" height="42" viewBox="0 0 47 42" fill="none" xmlns="http://www.w3.org/2000/svg">
<path d="M31.7875 36.7612L31.7943 36.7543L31.8868 36.467C33.1646 32.4973 35.0415 29.4567 37.3775 26.2525C37.4068 26.2123 37.4901 26.1308 37.6221 26.0666C37.7495 26.0047 37.8622 25.9879 37.9397 25.9948L38.0062 26.0009L38.0103 26.0008C38.1281 26.0165 38.2861 26.0789 38.49 26.3342L44.0277 35.9868C44.3486 36.5462 44.4581 37.1655 44.3827 37.758L44.3804 37.776L44.3787 37.794C44.2429 39.1804 43.0872 40.2464 41.7038 40.2464C41.6875 40.2464 41.6712 40.2463 41.655 40.246L41.6329 40.2456L41.6107 40.246C41.594 40.2463 41.5773 40.2464 41.5606 40.2464L34.3894 40.2464L34.3868 40.2464H34.3706C32.8973 40.2464 31.6823 39.0371 31.6823 37.5198C31.6823 37.323 31.7027 37.1323 31.741 36.9495L31.7523 36.8953L31.7538 36.8905L31.762 36.8572C31.7699 36.8249 31.7784 36.7929 31.7875 36.7612ZM34.466 19.3201L34.4703 19.3277L34.4748 19.3352C34.4924 19.3649 34.5202 19.4258 34.5327 19.5438C34.5317 19.6429 34.5266 19.6988 34.5207 19.736C34.5153 19.7699 34.5081 19.7958 34.4936 19.8292C29.3168 31.7345 17.6118 40.0737 3.96975 40.2438C2.45711 40.179 1.25 38.9313 1.25 37.4022C1.25 36.9056 1.38002 36.4176 1.62712 35.9869L20.3597 3.33247C21.1414 1.96993 22.8796 1.49901 24.2421 2.28065C24.6798 2.53173 25.0428 2.89473 25.2939 3.33241L34.466 19.3201ZM37.386 15.321L37.3862 15.3059L37.386 15.2907C37.3842 15.1449 37.4762 14.7365 37.9982 14.1021L41.0543 10.6917L41.0702 10.674L41.0853 10.6557C41.2673 10.4365 41.4469 10.3852 41.5675 10.3853C41.6887 10.3854 41.8685 10.4375 42.0496 10.6557L42.0648 10.674L42.0807 10.6917L45.1368 14.1021C45.6594 14.7373 45.7516 15.1458 45.75 15.2915L45.7498 15.3059L45.75 15.3202C45.7516 15.466 45.6594 15.8745 45.1368 16.5096L42.0807 19.92L42.0648 19.9377L42.0496 19.956C41.8685 20.1742 41.6887 20.2263 41.5675 20.2264C41.4469 20.2265 41.2673 20.1753 41.0853 19.956L41.0702 19.9377L41.0543 19.92L37.9982 16.5096C37.4762 15.8752 37.3842 15.4669 37.386 15.321Z" stroke="white" stroke-width="2.5"/>
</svg>
