<svg width="47" height="46" viewBox="0 0 47 46" fill="none" xmlns="http://www.w3.org/2000/svg">
<g clip-path="url(#clip0)">
<path d="M28.22 43.0175C28.22 43.1643 28.2544 43.3092 28.3204 43.4406C28.3865 43.5719 28.4824 43.6862 28.6006 43.7743C28.7188 43.8625 28.856 43.922 29.0013 43.9483C29.1467 43.9746 29.2962 43.9668 29.438 43.9257C34.3947 42.5032 38.6681 39.3491 41.4723 35.0436C44.2764 30.7381 45.4226 25.5708 44.7001 20.492C43.9775 15.4133 41.4349 10.7647 37.5398 7.40125C33.6447 4.03783 28.6591 2.18579 23.5 2.18579C18.3409 2.18579 13.3553 4.03783 9.46022 7.40125C5.56512 10.7647 3.02247 15.4133 2.29996 20.492C1.57744 25.5708 2.72366 30.7381 5.52776 35.0436C8.33187 39.3491 12.6053 42.5032 17.562 43.9257C17.7038 43.9668 17.8533 43.9746 17.9987 43.9483C18.144 43.922 18.2812 43.8625 18.3994 43.7743C18.5176 43.6862 18.6135 43.5719 18.6796 43.4406C18.7457 43.3092 18.7801 43.1643 18.7801 43.0175V38.5707C17.4746 38.9629 16.0677 38.8444 14.8472 38.2394C13.6267 37.6344 12.6847 36.5887 12.214 35.3161C11.682 33.7058 10.798 32.2324 9.62564 31.0019C15.0498 32.3075 15.1449 35.8081 18.8372 34.1619C18.9487 32.934 19.3604 31.7517 20.0362 30.718C15.8491 30.245 11.4337 29.5827 11.4337 22.3923C11.3974 20.5342 12.0784 18.733 13.3369 17.3589C12.7637 15.7425 12.8317 13.9696 13.5272 12.4013C13.5272 12.4013 15.1069 11.8904 18.723 14.2936C21.8367 13.4385 25.1253 13.4385 28.239 14.2936C31.836 11.8715 33.4157 12.4013 33.4157 12.4013C34.1112 13.9696 34.1793 15.7425 33.606 17.3589C34.8662 18.732 35.5475 20.5339 35.5092 22.3923C35.5092 29.6016 31.0938 30.245 26.8877 30.6991C27.7885 31.9904 28.2427 33.5377 28.1819 35.108L28.22 43.0175Z" stroke="white" stroke-width="2.5" stroke-linecap="round" stroke-linejoin="round"/>
</g>
<defs>
<clipPath id="clip0">
<rect y="0.619141" width="47" height="44.9111" fill="white"/>
</clipPath>
</defs>
</svg>
