<svg width="48" height="40" viewBox="0 0 48 40" fill="none" xmlns="http://www.w3.org/2000/svg">
<path d="M14.6918 37.284H2.13647L8.30589 28.9229L14.6918 37.284Z" stroke="white" stroke-width="2.5" stroke-linecap="round" stroke-linejoin="round"/>
<path d="M26.0294 26.5956L15.5577 2.86499H2.81296V3.83911C11.6612 14.5273 8.90119 10.0085 21.2941 37.2838H22.593L33.4165 2.86499H45.133V3.83911L41.5882 7.11323C41.446 7.22265 41.3358 7.36829 41.2692 7.53489C41.2025 7.7015 41.1819 7.88296 41.2094 8.06028V32.0615C41.1819 32.2388 41.2025 32.4202 41.2692 32.5869C41.3358 32.7535 41.446 32.8991 41.5882 33.0085L45.16 37.2568H28.5188L31.6035 32.9273C31.9553 32.5756 31.9553 32.4944 31.9553 31.9803V8.16852" stroke="white" stroke-width="2.5" stroke-linecap="round" stroke-linejoin="round"/>
<path d="M8.30591 28.9227V10.5498" stroke="white" stroke-width="2.5" stroke-linecap="round" stroke-linejoin="round"/>
</svg>
