<svg width="50" height="41" viewBox="0 0 50 41" fill="none" xmlns="http://www.w3.org/2000/svg">
<g clip-path="url(#clip0)">
<path d="M48.2917 9.05387L43.9167 7.17887L46.2083 2.17887L40.875 3.94971C39.1763 2.36623 36.9472 1.47459 34.625 1.44971C32.1403 1.45521 29.7589 2.4447 28.002 4.20166C26.245 5.95862 25.2555 8.33999 25.25 10.8247V12.908C17.875 14.4289 11.4375 10.408 5.45834 3.53304C4.41667 9.0886 5.45834 13.2553 8.58334 16.033L1.72917 14.9914C1.99398 17.198 3.02572 19.2415 4.64413 20.7647C6.26254 22.2879 8.36471 23.194 10.5833 23.3247L4.85417 25.408C6.93751 29.5747 10.7292 30.2205 15.7917 30.6164C11.6538 33.4386 6.73662 34.8956 1.72917 34.783C28.3125 46.5955 43.9167 29.2414 43.9167 13.9497V12.2205L48.2917 9.05387Z" stroke="white" stroke-width="2.5" stroke-linecap="round" stroke-linejoin="round"/>
</g>
<defs>
<clipPath id="clip0">
<rect y="0.074707" width="50" height="40" fill="white"/>
</clipPath>
</defs>
</svg>
